<svg version="1.1" viewBox="0 0 100 100" xmlns="http://www.w3.org/2000/svg">
 <g>
  <path d="m87.266 21.879c-0.015625 0-0.027344 0.003906-0.042969 0.003906 0.34766-0.62891 0.5625-1.3398 0.5625-2.1055 0-2.418-1.9688-4.3867-4.3867-4.3867-0.58594 0-1.1406 0.12109-1.6484 0.32812 0.066406-0.31641 0.097656-0.64453 0.097656-0.98047 0-2.6836-2.1836-4.8672-4.8711-4.8672-1.3516 0-2.5742 0.55469-3.457 1.4453-0.55078-2.4258-2.7148-4.2461-5.3047-4.2461-1.7305 0-3.2539 0.82422-4.2539 2.082-1.3555-2.4727-3.9844-4.1523-6.9961-4.1523-4.3984 0-7.9766 3.5781-7.9766 7.9766 0 4.3984 3.5781 7.9766 7.9766 7.9766 0.68359 0 1.3438-0.09375 1.9766-0.25781-3.832 3.0859-6.293 7.8047-6.293 13.094 0 2.6719 0.64453 5.332 1.8594 7.6914 0.21875 0.42578 0.45703 0.84375 0.71094 1.2422 0.69922 1.5469 0.63281 3.1016-0.19531 4.6172-0.36719 0.44141-0.70313 0.90625-0.99609 1.3828-0.003906 0.007813-0.007813 0.011719-0.011719 0.019532-1.1641 1.8945-1.7812 4.0742-1.7812 6.3047 0 6.6445 5.4062 12.047 12.051 12.047 2.2188 0 4.3828-0.60938 6.2734-1.7578 0.097656-0.0625 0.20312-0.12891 0.30859-0.19922 0.25781-0.16797 0.50781-0.34766 0.73828-0.51953 5.4492-4.0898 14.672-15.184 14.672-30.828 0-1.4297-0.19922-2.8086-0.53516-4.1328 0.47266 0.19531 0.98828 0.30469 1.5352 0.30469 2.2266 0 4.0391-1.8125 4.0391-4.043-0.007812-2.2266-1.8203-4.0391-4.0508-4.0391zm-3.8633-3.4492c0.74219 0 1.3438 0.60156 1.3438 1.3438 0 0.74219-0.60156 1.3438-1.3438 1.3438-0.74219 0-1.3438-0.60156-1.3438-1.3438 0-0.73828 0.60156-1.3438 1.3438-1.3438zm-4.3672 1.5586c-0.28125-0.19531-0.57031-0.37109-0.86328-0.55078 0.31641-0.082031 0.61719-0.19141 0.90625-0.33203-0.035156 0.21875-0.066406 0.4375-0.066406 0.66406 0.003906 0.078125 0.019531 0.14844 0.023437 0.21875zm-2.0547-7.0781c1.0078 0 1.8242 0.82031 1.8242 1.8242 0 1.0078-0.82031 1.8281-1.8242 1.8281-1.0078 0-1.8242-0.82031-1.8242-1.8281 0-1.0039 0.82031-1.8242 1.8242-1.8242zm-4.6562 3.168c0.12891 0.44531 0.30859 0.86719 0.55078 1.25-0.53906-0.11328-1.0898-0.19531-1.6484-0.25781 0.41406-0.27344 0.77344-0.61719 1.0977-0.99219zm-4.1094-5.9648c1.3281 0 2.4141 1.082 2.4141 2.4141 0 1.3281-1.082 2.4102-2.4141 2.4102-1.3281 0-2.4141-1.082-2.4141-2.4102 0.003907-1.332 1.0859-2.4141 2.4141-2.4141zm-16.184 2.8633c0-2.7188 2.2148-4.9336 4.9336-4.9336s4.9336 2.2148 4.9336 4.9336-2.2148 4.9336-4.9336 4.9336c-2.7227-0.003906-4.9336-2.2148-4.9336-4.9336zm12.207 3.2578c0.44141 0.47656 0.97266 0.86328 1.5586 1.1562-1.0156 0.22656-1.9961 0.53516-2.9336 0.9375 0.55859-0.61719 1.0273-1.3203 1.375-2.0938zm5.5195 45.957c-0.18359 0.14062-0.37109 0.26953-0.56641 0.40234-0.074218 0.050781-0.14844 0.097656-0.22656 0.14453-1.4062 0.85938-3.0273 1.3125-4.6836 1.3125-4.9648 0-9.0078-4.0391-9.0078-9.0039 0-1.6562 0.45312-3.2734 1.3125-4.6836 0.007812-0.011719 0.011718-0.019531 0.019531-0.03125 0.24219-0.39062 0.51953-0.77344 0.82812-1.1367 0.0625-0.070312 0.11719-0.15234 0.16406-0.23437 1.3867-2.4219 1.5039-5.125 0.33594-7.6172-0.027344-0.058594-0.058594-0.11719-0.097656-0.17188-0.22656-0.35156-0.43359-0.71484-0.62891-1.0938-1.0117-1.9609-1.5234-4.0781-1.5234-6.2969 0-7.5898 6.1758-13.77 13.77-13.77s13.77 6.1758 13.77 13.77c0.003906 14.453-8.4531 24.652-13.465 28.41zm13.445-38.051c0.066406 0.003906 0.12891 0.019531 0.19531 0.019531 0.089843 0 0.17187-0.019531 0.25781-0.027344-0.066406 0.13281-0.125 0.26563-0.17578 0.40625-0.085938-0.13281-0.18359-0.26562-0.27734-0.39844zm4.0625 2.7734c-0.55078 0-0.99609-0.44922-0.99609-1 0-0.55078 0.44922-0.99609 0.99609-0.99609 0.55078 0 0.99609 0.44922 0.99609 0.99609 0.003906 0.55469-0.44531 1-0.99609 1z"/>
  <path d="m43.035 32.902c-3.0156 0-5.6406 1.6797-6.9961 4.1523-1-1.2578-2.5273-2.082-4.2539-2.082-2.5898 0-4.7539 1.8164-5.3086 4.2422-0.88281-0.89062-2.1055-1.4453-3.457-1.4453-2.6836 0-4.8711 2.1836-4.8711 4.8672 0 0.33594 0.035156 0.66406 0.097656 0.98047-0.51172-0.20703-1.0664-0.32813-1.6484-0.32813-2.418 0-4.3867 1.9688-4.3867 4.3867 0 0.76953 0.21484 1.4805 0.5625 2.1055-0.015626 0-0.027344-0.003906-0.042969-0.003906-2.2266 0-4.0391 1.8125-4.0391 4.0391 0 2.2266 1.8125 4.0391 4.0391 4.0391 0.54297 0 1.0586-0.10938 1.5312-0.30469-0.33594 1.3242-0.53516 2.7031-0.53516 4.1328 0 15.648 9.2227 26.742 14.656 30.816 0.24219 0.1875 0.49609 0.36719 0.73828 0.52344 0.11328 0.074218 0.22266 0.14453 0.32422 0.21094 1.8906 1.1562 4.0586 1.7656 6.2734 1.7656 6.6445 0 12.047-5.4062 12.047-12.047 0-2.2305-0.61719-4.4102-1.7812-6.3047-0.011719-0.015626-0.019531-0.035157-0.03125-0.050782-0.28906-0.46484-0.61719-0.91406-0.97656-1.3516-0.82812-1.5156-0.89453-3.0664-0.19531-4.6172 0.25391-0.39844 0.49219-0.81641 0.71094-1.2461 1.2148-2.3594 1.8594-5.0195 1.8594-7.6914 0-5.2891-2.4609-10.012-6.293-13.094 0.63281 0.16016 1.293 0.25781 1.9766 0.25781 4.3984 0 7.9766-3.5781 7.9766-7.9766 0-4.3984-3.5781-7.9766-7.9766-7.9766zm-11.25 5.1172c1.3281 0 2.4141 1.082 2.4141 2.4141 0 1.3281-1.082 2.4141-2.4141 2.4141-1.3281 0-2.4141-1.082-2.4141-2.4141 0-1.332 1.082-2.4141 2.4141-2.4141zm-3.0117 6.957c-0.55859 0.058594-1.1094 0.14453-1.6484 0.25781 0.24219-0.38281 0.42188-0.80469 0.55078-1.25 0.32422 0.37109 0.68359 0.71484 1.0977 0.99219zm-5.7539-4.1641c1.0078 0 1.8242 0.82031 1.8242 1.8242 0 1.0078-0.82031 1.8242-1.8242 1.8242-1.0078 0-1.8242-0.82031-1.8242-1.8242-0.003906-1.0039 0.81641-1.8242 1.8242-1.8242zm-1.1953 6.5312c-0.29297 0.17969-0.58203 0.35547-0.86328 0.55078 0.003906-0.074219 0.023437-0.14062 0.023437-0.21484 0-0.22656-0.035156-0.44531-0.066406-0.66406 0.28906 0.13672 0.58984 0.24609 0.90625 0.32812zm-5.2266-1.0078c0.74219 0 1.3438 0.60156 1.3438 1.3438 0 0.74219-0.60156 1.3438-1.3438 1.3438-0.74219 0-1.3438-0.60156-1.3438-1.3438 0-0.74219 0.60547-1.3438 1.3438-1.3438zm-3.8633 8.4844c-0.55078 0-0.99609-0.44922-0.99609-0.99609 0-0.55078 0.44922-0.99609 0.99609-0.99609 0.55078 0 0.99609 0.44922 0.99609 0.99609s-0.44922 0.99609-0.99609 0.99609zm3.6055-2.7812c0.085937 0.003907 0.17188 0.027344 0.25781 0.027344 0.066406 0 0.12891-0.015625 0.19531-0.019531-0.09375 0.13281-0.1875 0.26562-0.27734 0.39844-0.050781-0.14062-0.10938-0.27344-0.17578-0.40625zm27.969 9.6523c0 2.2188-0.51172 4.3398-1.5234 6.3008-0.19141 0.375-0.40234 0.73828-0.62891 1.0898-0.035156 0.054688-0.066406 0.11328-0.09375 0.17188-1.168 2.4922-1.0508 5.1992 0.33594 7.6172 0.046874 0.082031 0.10156 0.16016 0.16406 0.23047 0.3125 0.36328 0.58984 0.74609 0.82812 1.1367 0.003906 0.007813 0.007813 0.011719 0.011719 0.015625 0.86328 1.4102 1.3203 3.0352 1.3203 4.6953 0 4.9648-4.0391 9.0039-9.0039 9.0039-1.6562 0-3.2773-0.45312-4.6797-1.3086l-0.23828-0.15234c-0.19141-0.125-0.37891-0.25781-0.57422-0.40625-4.9961-3.75-13.453-13.945-13.453-28.395 0-7.5898 6.1758-13.77 13.77-13.77 7.5898 0 13.766 6.1797 13.766 13.77zm-10.102-16.398c0.58594-0.29297 1.1133-0.67969 1.5586-1.1562 0.34766 0.77344 0.81641 1.4766 1.3789 2.0938-0.94141-0.39844-1.9219-0.71094-2.9375-0.9375zm8.8281 0.51953c-2.7188 0-4.9336-2.2148-4.9336-4.9336s2.2148-4.9336 4.9336-4.9336 4.9336 2.2148 4.9336 4.9336-2.2109 4.9336-4.9336 4.9336z"/>
 </g>
</svg>
